<svg xmlns="http://www.w3.org/2000/svg" viewBox="0 0 34.84 35.73"><defs><style>.ab276281-8e3f-4dc1-99e2-6da2524f7fa2,.aed0ad43-43f8-4607-a142-a9bf9dc5b201,.bc6e9268-9c43-4679-9407-5a48dcd07bb3{fill:none;stroke:#000;stroke-width:1.5px;}.aed0ad43-43f8-4607-a142-a9bf9dc5b201,.bc6e9268-9c43-4679-9407-5a48dcd07bb3{stroke-linecap:round;}.bc6e9268-9c43-4679-9407-5a48dcd07bb3{stroke-linejoin:round;}</style></defs><g id="b2e84bf9-6cae-4f66-8902-482d806d9200" data-name="Capa 2"><g id="a0489f0a-c9fc-4b75-8de4-b51ef3c80945" data-name="Capa 1"><circle class="ab276281-8e3f-4dc1-99e2-6da2524f7fa2" cx="26.73" cy="8.13" r="4.11"/><polyline class="aed0ad43-43f8-4607-a142-a9bf9dc5b201" points="3.18 1.75 4.12 4.89 7.68 6.67 10.09 8.88 5.67 13.92 6.96 23.77 16.32 31.25 17.28 33.2"/><line class="aed0ad43-43f8-4607-a142-a9bf9dc5b201" x1="26.73" y1="12.75" x2="26.73" y2="15.69"/><line class="aed0ad43-43f8-4607-a142-a9bf9dc5b201" x1="26.73" y1="0.75" x2="26.73" y2="3.69"/><line class="aed0ad43-43f8-4607-a142-a9bf9dc5b201" x1="22.09" y1="8.13" x2="19.15" y2="8.13"/><line class="aed0ad43-43f8-4607-a142-a9bf9dc5b201" x1="34.09" y1="8.13" x2="31.15" y2="8.13"/><line class="aed0ad43-43f8-4607-a142-a9bf9dc5b201" x1="23.52" y1="11.08" x2="21.44" y2="13.17"/><line class="aed0ad43-43f8-4607-a142-a9bf9dc5b201" x1="32.01" y1="2.6" x2="29.93" y2="4.68"/><line class="aed0ad43-43f8-4607-a142-a9bf9dc5b201" x1="23.16" y1="4.76" x2="21.08" y2="2.68"/><line class="aed0ad43-43f8-4607-a142-a9bf9dc5b201" x1="31.65" y1="13.25" x2="29.57" y2="11.16"/><circle cx="13.58" cy="12.27" r="2.05"/><polyline class="bc6e9268-9c43-4679-9407-5a48dcd07bb3" points="14.5 13.44 15.1 15.01 15.1 19.84 16.74 28.86 15.62 29.74"/><polyline class="bc6e9268-9c43-4679-9407-5a48dcd07bb3" points="15.1 19.84 12.02 23.77 12.5 27.61"/><polyline class="bc6e9268-9c43-4679-9407-5a48dcd07bb3" points="9.05 11.36 11.37 16.4 15.11 16.09"/><polyline class="bc6e9268-9c43-4679-9407-5a48dcd07bb3" points="9.5 19.24 13.07 19.58 15.11 16.09"/><polyline class="aed0ad43-43f8-4607-a142-a9bf9dc5b201" points="18.5 34.98 8.31 28.85 3.18 21.3 0.75 1.75"/></g></g></svg>