<svg xmlns="http://www.w3.org/2000/svg" viewBox="0 0 34.08 34.08"><defs><style>.fd551769-bb09-4194-9e3b-7c042909e2ab{fill:none;stroke:#000;stroke-width:2px;}.fccddfea-2b8f-492e-ac6e-a7123a4cb89a{fill:#fff;}</style></defs><g id="eca54fb2-d8fd-4933-bbdf-3183910611e6" data-name="Capa 2"><g id="f1d1d32b-f83d-4ea7-bedd-dfd61741123b" data-name="Capa 1"><circle class="fd551769-bb09-4194-9e3b-7c042909e2ab" cx="17.04" cy="17.04" r="16.04"/><line class="fd551769-bb09-4194-9e3b-7c042909e2ab" x1="0.8" y1="17.04" x2="33.07" y2="17.04"/><path class="fd551769-bb09-4194-9e3b-7c042909e2ab" d="M2,22.64c7.54,4.17,22.67,4.25,29.93.32"/><path class="fd551769-bb09-4194-9e3b-7c042909e2ab" d="M2,11.42c7.54-4.16,22.67-4.24,29.93-.3"/><line class="fd551769-bb09-4194-9e3b-7c042909e2ab" x1="16.94" y1="33.1" x2="16.94" y2="0.83"/><path class="fd551769-bb09-4194-9e3b-7c042909e2ab" d="M22.45,32.14c4.16-7.54,4.46-22.76.49-30"/><path class="fd551769-bb09-4194-9e3b-7c042909e2ab" d="M11.43,32.14C7.28,24.6,6.78,9.55,10.72,2.3"/><path d="M10.23,31.41a.5.5,0,0,1-.27-.08.48.48,0,0,1-.16-.61L13,24.17,6.84,25.4,4.35,27.67a.49.49,0,0,1-.32.12.46.46,0,0,1-.23-.05.48.48,0,0,1-.25-.49l.23-1.8-.33-1.39a.48.48,0,0,1,.31-.57L20.5,17.76a6.72,6.72,0,0,1,2.22-.37,6.28,6.28,0,0,1,.75,0l9,1a.48.48,0,0,1,.06.95l-14,3.23-8,8.66A.47.47,0,0,1,10.23,31.41Z"/><path class="fccddfea-2b8f-492e-ac6e-a7123a4cb89a" d="M22.72,17.87a5.48,5.48,0,0,1,.7,0l9,1-14.1,3.27-8.12,8.76,3.64-7.42L6.62,25,4,27.31l.24-1.89L3.91,24l16.75-5.74a6.27,6.27,0,0,1,2.06-.34m0-1h0a7.32,7.32,0,0,0-2.37.4L3.6,23A1,1,0,0,0,3,24.18l.31,1.3-.22,1.71a1,1,0,0,0,.51,1,1,1,0,0,0,.45.1A1,1,0,0,0,4.68,28l2.39-2.18,5.08-1L9.37,30.5a1,1,0,0,0,.31,1.22.94.94,0,0,0,.55.17,1,1,0,0,0,.71-.31L18.85,23l13.82-3.2A1,1,0,0,0,32.56,18l-9-1a7.34,7.34,0,0,0-.81-.05Z"/><path d="M4.21,23.9a.55.55,0,0,1-.5-.38l-.62-2.41a.51.51,0,0,1,.09-.43.52.52,0,0,1,.4-.2.54.54,0,0,1,.25.06l2.69,1.61a.56.56,0,0,1,.25.48.52.52,0,0,1-.31.43l-2.07.81a.52.52,0,0,1-.18,0Z"/><path class="fccddfea-2b8f-492e-ac6e-a7123a4cb89a" d="M3.58,21h0l2.68,1.61a0,0,0,0,1,0,0l-2,.81h0s0,0,0,0L3.56,21s0,0,0,0m0-1a1,1,0,0,0-.78.38,1,1,0,0,0-.18.85l.63,2.41a1,1,0,0,0,1,.74,1.09,1.09,0,0,0,.36-.06l2.05-.81a1,1,0,0,0,.15-1.77l-2.68-1.6A1,1,0,0,0,3.58,20Z"/></g></g></svg>