<svg xmlns="http://www.w3.org/2000/svg" viewBox="0 0 26.33 32.26"><defs><style>.b134485e-6aa9-4683-8f9f-f76a5236add0{fill:none;stroke:#000;stroke-width:1.5px;}</style></defs><g id="afd2af99-e180-48ed-8064-f809003db722" data-name="Capa 2"><g id="bd3a2546-2093-49de-8a2c-9cf490b726f0" data-name="Capa 1"><path class="b134485e-6aa9-4683-8f9f-f76a5236add0" d="M23,31.43H3.34A2.59,2.59,0,0,1,.75,28.84V13.72c0-1.42,12.42-12,12.42-12s12.41,10.53,12.41,12V28.84A2.59,2.59,0,0,1,23,31.43Z"/><rect class="b134485e-6aa9-4683-8f9f-f76a5236add0" x="13.58" y="21.8" width="5.86" height="9.72" rx="1.34"/><path class="b134485e-6aa9-4683-8f9f-f76a5236add0" d="M16.7,4.82V2.09A1.34,1.34,0,0,1,18,.75h3.18a1.34,1.34,0,0,1,1.34,1.34v7a1.34,1.34,0,0,1-.26.79"/><rect class="b134485e-6aa9-4683-8f9f-f76a5236add0" x="4.15" y="21.8" width="5.86" height="5.86" rx="1.04" transform="translate(31.8 17.65) rotate(90)"/></g></g></svg>